<svg xmlns="http://www.w3.org/2000/svg" viewBox="0 0 2659.12 573.5"><defs><style>.cls-1,.cls-2{fill:#fff;}.cls-2{font-size:395.71px;font-family:Gilroy-Bold, Gilroy;font-weight:700;}</style></defs><g id="Layer_2" data-name="Layer 2"><g id="Layer_1-2" data-name="Layer 1"><path class="cls-1" d="M228.94,131.7c4.75-16.27,12.42-40.5,23.89-69.26C269.37,21,277.86.21,288.82,0c10.23-.19,19.82,16.8,38.73,72.16,11.41,33.43,25.62,79.07,38.9,135a142.73,142.73,0,0,1-27.22-21c-31.92-31.42-33.65-63.46-50.92-66.05-7.25-1.09-18,2.9-33.43,24.91Z"/><path class="cls-1" d="M355.51,136.24c14.86-8.15,37.42-19.86,65.86-32.09,41-17.63,61.71-26.3,69.61-18.69,7.37,7.09,2.13,25.89-23.65,78.41-15.56,31.7-37.79,74-67.91,122.92A143.15,143.15,0,0,1,395,252.73c-.35-44.8,21.08-68.67,10.7-82.71-4.36-5.9-14.77-10.68-41.26-6Z"/><path class="cls-1" d="M441.79,228.94c16.27,4.75,40.5,12.42,69.27,23.89,41.48,16.54,62.23,25,62.44,36,.19,10.23-16.8,19.82-72.17,38.73-33.42,11.41-79.07,25.62-134.94,38.9a142.62,142.62,0,0,1,20.95-27.22c31.43-31.92,63.46-33.65,66.05-50.92,1.09-7.25-2.9-18-24.9-33.43Z"/><path class="cls-1" d="M437.26,355.51c8.14,14.86,19.86,37.42,32.08,65.86,17.64,41,26.3,61.71,18.7,69.61-7.09,7.37-25.89,2.13-78.41-23.65-31.7-15.56-74-37.79-122.92-67.91A143.07,143.07,0,0,1,320.77,395c44.8-.35,68.67,21.08,82.71,10.7,5.89-4.36,10.67-14.77,6-41.26Z"/><path class="cls-1" d="M344.55,441.79c-4.75,16.27-12.41,40.5-23.88,69.27-16.54,41.48-25,62.23-36,62.44-10.23.19-19.82-16.8-38.72-72.17-11.42-33.42-25.62-79.07-38.9-134.94a143.24,143.24,0,0,1,27.22,20.95c31.92,31.43,33.65,63.46,50.91,66.05,7.25,1.09,18-2.9,33.44-24.9Z"/><path class="cls-1" d="M218,437.26c-14.87,8.14-37.42,19.86-65.87,32.08-41,17.64-61.7,26.3-69.6,18.7-7.37-7.09-2.14-25.89,23.64-78.41,15.57-31.7,37.8-74,67.92-122.92a143.07,143.07,0,0,1,4.43,34.06c.35,44.8-21.08,68.67-10.7,82.71,4.35,5.89,14.77,10.67,41.25,6Z"/><path class="cls-1" d="M131.7,344.55c-16.27-4.75-40.5-12.41-69.26-23.88C21,304.13.21,295.63,0,284.67-.19,274.44,16.8,264.85,72.16,246c33.43-11.42,79.07-25.62,135-38.9a143.36,143.36,0,0,1-21,27.22c-31.42,31.92-63.46,33.65-66.05,50.91-1.09,7.25,2.9,18,24.91,33.44Z"/><path class="cls-1" d="M136.24,218c-8.15-14.87-19.86-37.42-32.09-65.87-17.63-41-26.3-61.7-18.69-69.6,7.09-7.37,25.89-2.14,78.41,23.64,31.7,15.57,74,37.8,122.92,67.92a143.15,143.15,0,0,1-34.06,4.43c-44.8.35-68.67-21.08-82.71-10.7-5.9,4.35-10.68,14.77-6,41.25Z"/><circle class="cls-1" cx="286.79" cy="286.71" r="46.39"/><text class="cls-2" transform="translate(627.98 411.24)">HealLink AI</text></g></g></svg>