<svg xmlns="http://www.w3.org/2000/svg" viewBox="0 0 923.93 1165.49"><defs><style>.cls-1,.cls-2{fill:#fff;}.cls-2{font-size:180px;font-family:Gilroy-Bold, Gilroy;font-weight:700;}</style></defs><g id="Layer_2" data-name="Layer 2"><g id="Layer_1-2" data-name="Layer 1"><path class="cls-1" d="M382.76,201.39c7.27-24.88,19-61.93,36.53-105.91C444.58,32.05,457.57.32,474.33,0c15.64-.3,30.3,25.68,59.22,110.35C551,161.46,572.72,231.26,593,316.7a218.83,218.83,0,0,1-41.62-32c-48.81-48.06-51.45-97-77.85-101-11.09-1.66-27.52,4.44-51.13,38.09Z"/><path class="cls-1" d="M576.3,208.33C599,195.88,633.52,178,677,159.27c62.74-27,94.35-40.22,106.43-28.6,11.27,10.85,3.27,39.59-36.15,119.9-23.8,48.49-57.8,113.2-103.86,188a218.93,218.93,0,0,1-6.77-52.08C636.14,318,668.9,281.45,653,260c-6.66-9-22.59-16.32-63.08-9.22Z"/><path class="cls-1" d="M708.24,350.09c24.88,7.26,61.93,19,105.91,36.52,63.44,25.29,95.16,38.28,95.48,55,.3,15.65-25.68,30.31-110.34,59.22-51.11,17.46-120.91,39.18-206.35,59.48a218.41,218.41,0,0,1,32-41.62c48.06-48.81,97-51.45,101-77.86,1.66-11.08-4.43-27.52-38.09-51.13Z"/><path class="cls-1" d="M701.3,543.62c12.46,22.73,30.37,57.22,49.07,100.72,27,62.74,40.22,94.36,28.59,106.44-10.85,11.27-39.59,3.26-119.9-36.16-48.48-23.8-113.2-57.79-188-103.85A219,219,0,0,1,523.18,604c68.5-.53,105,32.24,126.47,16.37,9-6.66,16.33-22.59,9.23-63.09Z"/><path class="cls-1" d="M559.55,675.57c-7.27,24.88-19,61.93-36.53,105.91-25.29,63.44-38.28,95.16-55,95.48-15.64.3-30.3-25.68-59.22-110.35-17.45-51.11-39.17-120.91-59.47-206.35a218.83,218.83,0,0,1,41.62,32c48.81,48.06,51.45,97.05,77.85,101,11.09,1.66,27.52-4.44,51.13-38.09Z"/><path class="cls-1" d="M366,668.63C343.28,681.09,308.79,699,265.29,717.7c-62.74,27-94.35,40.21-106.43,28.59-11.27-10.85-3.27-39.59,36.15-119.9,23.8-48.48,57.8-113.2,103.86-188a219,219,0,0,1,6.77,52.09c.53,68.49-32.23,105-16.37,126.47,6.67,9,22.6,16.32,63.09,9.22Z"/><path class="cls-1" d="M234.07,526.87c-24.88-7.26-61.93-19-105.92-36.52-63.43-25.29-95.15-38.28-95.47-55C32.38,419.67,58.36,405,143,376.09c51.11-17.45,120.91-39.18,206.35-59.48a218.83,218.83,0,0,1-32,41.62c-48.06,48.81-97,51.46-101,77.86-1.66,11.08,4.43,27.52,38.09,51.13Z"/><path class="cls-1" d="M241,333.34c-12.46-22.73-30.37-57.22-49.07-100.72-27-62.74-40.22-94.36-28.59-106.43,10.85-11.28,39.59-3.27,119.9,36.15,48.48,23.8,113.2,57.79,188,103.85A219,219,0,0,1,419.13,273c-68.5.53-105-32.24-126.47-16.37-9,6.66-16.33,22.59-9.23,63.09Z"/><circle class="cls-1" cx="471.22" cy="438.42" r="70.94"/><text class="cls-2" transform="translate(0 1118.15)">HealLink AI</text></g></g></svg>